<?xml version="1.0" standalone="no"?>
<!DOCTYPE svg PUBLIC "-//W3C//DTD SVG 20010904//EN"
 "http://www.w3.org/TR/2001/REC-SVG-20010904/DTD/svg10.dtd">
<svg version="1.0" xmlns="http://www.w3.org/2000/svg"
 width="512.000000pt" height="512.000000pt" viewBox="0 0 512.000000 512.000000"
 preserveAspectRatio="xMidYMid meet">
<metadata>
Created by potrace 1.11, written by Peter Selinger 2001-2013
</metadata>
<g transform="translate(0.000000,512.000000) scale(0.100000,-0.100000)"
fill="#000000" stroke="none">
<path d="M697 5103 c-152 -34 -279 -154 -324 -303 -14 -44 -17 -103 -18 -292
-1 -131 0 -238 2 -238 2 0 27 22 55 49 49 48 166 115 218 127 14 3 36 8 50 12
14 4 862 7 1885 7 l1860 0 68 -23 c88 -30 138 -59 209 -122 l58 -51 1 33 c3
122 -1 430 -6 459 -11 63 -71 172 -124 225 -48 48 -123 93 -195 117 -50 16
-3667 17 -3739 0z m860 -220 c38 -25 75 -98 75 -145 -1 -62 -39 -127 -91 -155
-115 -60 -246 9 -259 137 -14 147 151 244 275 163z m2220 -15 c72 -67 79 -180
15 -251 -73 -81 -216 -70 -277 20 -90 137 38 312 194 267 24 -7 55 -23 68 -36z"/>
<path d="M797 4339 c-97 -6 -115 -10 -181 -43 -119 -59 -210 -167 -248 -299
-9 -32 -12 -260 -13 -922 l-1 -880 -33 -133 c-18 -74 -34 -141 -37 -150 -9
-38 -75 -281 -89 -327 -26 -87 -74 -259 -79 -285 -3 -14 -24 -95 -46 -180 -22
-85 -42 -164 -44 -175 -2 -11 -9 -40 -16 -65 -39 -145 86 -303 280 -356 61
-17 194 -18 2255 -19 2370 -1 2253 -4 2371 51 105 49 189 155 198 249 3 22 -8
87 -24 150 -16 61 -31 122 -34 136 -2 13 -16 67 -30 119 -14 52 -42 154 -62
225 -20 72 -44 157 -54 190 -21 70 -78 292 -118 455 l-29 115 0 880 c-1 807
-2 884 -18 930 -49 141 -132 239 -250 295 -62 30 -82 34 -170 37 -169 7 -3413
8 -3528 2z m2941 -538 l42 -1 0 -260 c0 -201 -3 -260 -12 -260 -7 -1 -339 -1
-738 -2 -399 0 -757 -4 -796 -9 -246 -30 -465 -191 -580 -424 -174 -355 -112
-795 149 -1057 98 -98 206 -160 347 -199 84 -22 92 -23 726 -25 l641 -2 0 299
1 299 -72 1 c-39 0 -260 1 -490 2 l-419 2 -1 248 c-1 137 2 253 5 259 5 7 905
13 1442 8 l57 0 -2 -817 -3 -818 -915 0 c-1064 0 -1048 -1 -1270 67 -355 109
-629 372 -765 735 -46 120 -69 224 -91 403 -9 72 -10 235 -2 318 15 156 25
210 64 337 67 223 158 379 308 530 191 192 406 297 721 350 17 3 77 8 135 11
58 4 106 7 107 8 1 1 1296 -2 1411 -3z"/>
<path d="M363 343 c16 -98 116 -233 213 -287 107 -60 -21 -56 1988 -56 1992 0
1862 -3 1969 52 95 48 208 200 219 292 l3 28 -2198 1 -2199 2 5 -32z"/>
</g>
</svg>
